<?xml version="1.0" encoding="utf-8"?>
<!-- Svg Vector Icons : http://www.onlinewebfonts.com/icon -->
<!DOCTYPE svg PUBLIC "-//W3C//DTD SVG 1.1//EN" "http://www.w3.org/Graphics/SVG/1.1/DTD/svg11.dtd">
<svg version="1.1" xmlns="http://www.w3.org/2000/svg" xmlns:xlink="http://www.w3.org/1999/xlink" x="0px" y="0px" viewBox="0 0 1000 1000" enable-background="new 0 0 1000 1000" xml:space="preserve">
<metadata> Svg Vector Icons : http://www.onlinewebfonts.com/icon </metadata>
<g><g transform="translate(0.000000,511.000000) scale(0.100000,-0.100000)"><path d="M3949.2,4872.9c-225.3-23.2-414.1-49.7-420.7-56.3c-6.6-6.6,132.5-914.3,314.7-2014c178.9-1103.1,318-2010.8,311.4-2017.4c-6.6-6.6-241.8-26.5-516.8-39.8c-278.3-13.2-768.5-49.7-1086.5-76.2c-771.8-69.6-937.5-69.6-1003.7,6.6c-86.1,96.1-225.3,420.7-404.1,950.7l-172.3,496.9l-433.9,9.9c-367.7,6.6-437.3,0-437.3-39.7c0-26.5,59.6-268.3,132.5-540c69.6-268.3,168.9-682.4,215.3-920.9L534,202.2l-218.6-1007C196.1-1358.1,100-1838.4,100-1871.5c0-59.6,23.2-62.9,437.3-56.3l433.9,9.9l172.3,496.9c198.8,583,331.3,884.5,420.7,964c59.6,56.3,96.1,56.3,798.3-16.6c404.1-39.8,983.8-82.8,1288.6-92.8c308.1-9.9,556.5-29.8,556.5-43.1c0-13.2-155.7-917.6-347.8-2007.4c-188.8-1089.9-341.2-1984.3-337.9-1990.9c6.6-3.3,215.3-29.8,467.1-53c410.8-39.8,460.4-39.8,477,6.6c13.3,29.8,361.1,954,771.8,2057.1l752,2004.1L7179-573c1136.2,19.9,1202.5,23.2,1550.3,106c672.5,162.3,1046.8,324.7,1139.6,490.3c43.1,79.5,43.1,96.1-10,178.9c-115.9,178.9-745.3,407.4-1457.5,530c-221.9,36.4-549.9,49.7-1344.9,49.7H6003l-56.3,142.4c-26.5,76.2-377.6,1003.7-771.8,2060.4c-483.6,1291.9-735.4,1921.3-768.5,1924.6C4379.9,4912.7,4174.5,4896.1,3949.2,4872.9z"/></g></g>
</svg>